<mxfile host="app.diagrams.net" agent="Mozilla/5.0 (Windows NT 6.3; WOW64) AppleWebKit/537.36 (KHTML, like Gecko) Chrome/109.0.0.0 Safari/537.36 OPR/95.0.0.0" version="24.7.7">
  <diagram id="XddQ_8S39I06N_rfDyoW" name="Страница — 3">
    <mxGraphModel dx="1050" dy="603" grid="1" gridSize="10" guides="1" tooltips="1" connect="1" arrows="1" fold="1" page="1" pageScale="1" pageWidth="827" pageHeight="1169" math="0" shadow="0">
      <root>
        <mxCell id="0" />
        <mxCell id="1" parent="0" />
        <mxCell id="YkQQS2dzW2eqLCjvw7jQ-1" value="&lt;h1 style=&quot;margin-top: 0px;&quot;&gt;Singleton Method&lt;/h1&gt;&lt;p&gt;Диаграмма классов паттерна &quot;Синглетон&quot;&lt;/p&gt;" style="text;html=1;whiteSpace=wrap;overflow=hidden;rounded=0;" vertex="1" parent="1">
          <mxGeometry width="520" height="80" as="geometry" />
        </mxCell>
        <mxCell id="Mn2Eo58PtgRMx8oBv_iX-1" value="Singleton" style="swimlane;fontStyle=0;childLayout=stackLayout;horizontal=1;startSize=26;fillColor=none;horizontalStack=0;resizeParent=1;resizeParentMax=0;resizeLast=0;collapsible=1;marginBottom=0;whiteSpace=wrap;html=1;" vertex="1" parent="1">
          <mxGeometry x="200" y="120" width="210" height="78" as="geometry" />
        </mxCell>
        <mxCell id="Mn2Eo58PtgRMx8oBv_iX-2" value="+ static Instance();" style="text;strokeColor=none;fillColor=none;align=left;verticalAlign=top;spacingLeft=4;spacingRight=4;overflow=hidden;rotatable=0;points=[[0,0.5],[1,0.5]];portConstraint=eastwest;whiteSpace=wrap;html=1;" vertex="1" parent="Mn2Eo58PtgRMx8oBv_iX-1">
          <mxGeometry y="26" width="210" height="26" as="geometry" />
        </mxCell>
        <mxCell id="Mn2Eo58PtgRMx8oBv_iX-3" value="#static uniqueInstance" style="text;strokeColor=none;fillColor=none;align=left;verticalAlign=top;spacingLeft=4;spacingRight=4;overflow=hidden;rotatable=0;points=[[0,0.5],[1,0.5]];portConstraint=eastwest;whiteSpace=wrap;html=1;" vertex="1" parent="Mn2Eo58PtgRMx8oBv_iX-1">
          <mxGeometry y="52" width="210" height="26" as="geometry" />
        </mxCell>
      </root>
    </mxGraphModel>
  </diagram>
</mxfile>
